<?xml version="1.0" encoding="utf-8"?>
<!-- Generator: Adobe Illustrator 22.0.1, SVG Export Plug-In . SVG Version: 6.00 Build 0)  -->
<svg version="1.0" id="Layer_1" xmlns="http://www.w3.org/2000/svg" xmlns:xlink="http://www.w3.org/1999/xlink" x="0px" y="0px"
	 width="255.5px" height="168.5px" viewBox="0 0 255.5 168.5" enable-background="new 0 0 255.5 168.5" xml:space="preserve">
<g>
	<path fill="#001E4E" d="M3,3c14,2.1,27.4,7.5,39.3,15.1c12,7.7,22.4,18,30.1,30.1c-4.3,2.4-8.6,4.8-13,7.2
		c17,23.9,27.1,52.6,28.9,81.9c0.6,9.2,0.4,18.5-1,27.6c-2.1-17-6.6-33.7-12.7-49.6c-9-23.3-21.9-45.1-38.7-63.7
		c4.6-2.6,9.2-5.1,13.8-7.7c-8.6-11.6-19.1-21.7-30.6-30.4C14,9.7,8.6,6.2,3,3z"/>
	<path fill="#001E4E" d="M122.7,33.6c1.6-2.2,4.5-2.9,7.1-3c2.7,0,5.8,0.7,7.5,3c1.6,2.3,0.8,5.2,1,7.8c-1.9,0.5-3.8,0.6-5.7,0.8
		c-0.1-1.9,0.2-3.9-0.1-5.7c-1.6-0.6-3.3-0.5-4.9,0c0,8.3-0.1,16.7,0,25c1.3,1,3.4,0.6,5,0.2c0.1-3.4,0-6.7,0-10.1
		c-1-1.1-2.2-2-3.6-2.6c0-1,0-2.1,0-3.1c3.1,0,6.2,0,9.3,0c0,5.2,0,10.4,0,15.6c0,1.7-0.9,3.4-2.4,4.4c-2.3,1.6-5.3,1.9-8.1,1.4
		c-1.9-0.4-3.9-1.1-5.1-2.8c-0.7-1-1-2.2-1-3.5c0-7.9,0-15.8,0-23.7C121.7,36.1,121.8,34.7,122.7,33.6z"/>
	<path fill="#001E4E" d="M94.8,31.1c1.9,0,3.8,0,5.7,0c0,10.2,0,20.3,0,30.5c2.9,0,5.8,0,8.7,0c-0.1,1.8-0.2,3.6-0.5,5.4
		c-4.6,0-9.3,0-13.9,0C94.8,55.1,94.8,43.1,94.8,31.1z"/>
	<path fill="#001E4E" d="M111.5,31.1c1.9,0,3.8,0,5.6,0c0,12,0,23.9,0,35.9c-1.9,0-3.8,0-5.7,0C111.5,55.1,111.5,43.1,111.5,31.1z"
		/>
	<path fill="#001E4E" d="M146.6,31.1c2.8-0.2,5.6-0.3,8.5,0c1.7,12,3.4,23.9,5.1,35.9c-1.9,0-3.8,0-5.7,0c-0.3-1.6-0.3-3.3-0.8-4.9
		c-1.4-1.1-3.1-1.8-4.8-2.3c0.2-1,0.3-2.1,0.5-3.1c1.2,0,2.4,0,3.6,0c-0.8-5.4-1.4-10.8-2.4-16.1c-1.4,8.8-2.5,17.6-3.7,26.4
		c-1.9,0-3.8,0-5.7,0C143,55.1,144.7,43.1,146.6,31.1z"/>
	<path fill="#001E4E" d="M24,59.4c10.1,9.3,18.9,20.2,25.7,32.2c-0.7,0.9-1.5,1.9-2.2,2.8c-5.8-2-11.5-4-17.3-5.9
		C28.1,78.8,26,69.1,24,59.4z"/>
	<path fill="#001E4E" d="M120.7,73.8c2.8-0.7,6-0.5,8.6,1c1.7,1,2.7,2.8,2.7,4.7c0,8.2,0,16.3,0,24.5c0.1,1.9-0.9,3.9-2.6,4.9
		c-2.9,1.7-6.5,1.8-9.6,0.8c-2.3-0.7-4.2-2.8-4.2-5.3c0-8.4,0-16.8,0-25.3C115.6,76.4,118.2,74.4,120.7,73.8 M121.2,79.3
		c-0.1,8.4,0,16.8,0,25.2c1.7,0.5,3.4,0.6,5.1,0c0-8.4,0-16.8,0-25.2C124.7,78.8,122.9,78.8,121.2,79.3z"/>
	<path fill="#001E4E" d="M199.3,74.5c2.9-1.3,6.3-1.4,9.2-0.2c1.8,0.7,3.5,2.3,3.8,4.3c0.2,1.9,0,3.8,0.1,5.7
		c-1.9,0.4-3.8,0.6-5.7,0.7c0-1.9,0-3.8,0-5.7c-1.6-0.5-3.4-0.5-5,0c-0.1,8.4,0,16.8,0,25.2c1.6,0.6,3.4,0.6,5.1,0c0-3.3,0-6.7,0-10
		c-0.9-1.2-2.2-2-3.6-2.6c0-1,0-2.1,0-3.1c3.1,0,6.1,0,9.2,0c0,5.2,0,10.4,0,15.7c0,2.1-1.4,3.9-3.2,4.8c-2.9,1.4-6.5,1.4-9.5,0.2
		c-2-0.8-3.7-2.8-3.6-5c0-8.3,0-16.6,0-24.9C195.8,77.4,197.3,75.4,199.3,74.5z"/>
	<path fill="#001E4E" d="M220.8,74c2.8-0.3,5.7-0.3,8.5,0c1.7,12,3.4,23.9,5.1,35.9c-1.9,0-3.8,0-5.7,0c-0.2-1.6-0.5-3.3-0.7-4.9
		c-1.5-1.1-3.2-1.8-4.9-2.3c0.2-1,0.3-2,0.5-3c1.2,0,2.4,0,3.6,0c-0.8-5.4-1.4-10.8-2.4-16.2c-1.4,8.8-2.5,17.6-3.7,26.4
		c-1.9,0-3.8,0-5.7,0C217.2,97.9,219,85.9,220.8,74z"/>
	<path fill="#001E4E" d="M94.8,74c2.8,0,5.7,0,8.5,0c2.3,0.1,4.8,0.7,6.5,2.3c1.1,1.1,1.5,2.6,1.5,4.1c0,4.3,0,8.6,0,12.8
		c0.1,1.8-0.7,3.6-2.1,4.6c-2.2,1.7-5,1.8-7.7,1.8c0-1,0-2.1,0-3.1c1.5-0.6,3-1.4,4.1-2.6c0-4.7,0-9.4,0-14.1
		c-1.6-0.6-3.4-0.5-5.1-0.5c0,10.1,0,20.2,0,30.4c-1.8,0.3-3.8,0-5.7,0.1C94.8,97.9,94.8,85.9,94.8,74z"/>
	<path fill="#001E4E" d="M136.5,74c2.8,0,5.7,0,8.5,0c2.2,0,4.5,0.6,6.2,2.1c1.2,1.1,1.8,2.7,1.7,4.3c0,4,0,8,0,12.1
		c-0.1,2.2-1.7,3.9-3.6,4.8c2,4,3.3,8.3,4.2,12.6c-2,0-3.9,0-5.9,0c-0.9-3.8-2-7.5-3.9-10.9c-0.8-1.2-0.4-2.6-0.5-4
		c1.5-0.6,3.2-1.3,4.1-2.6c0.1-4.2,0-8.3,0.1-12.5c-1.6-0.6-3.4-0.5-5.1-0.5c0,10.2,0,20.3,0,30.5c-1.9,0-3.8,0-5.6,0
		C136.5,97.9,136.6,85.9,136.5,74z"/>
	<path fill="#001E4E" d="M155.2,74c5.7,0,11.3,0,17,0c0,1.8,0,3.6,0,5.4c-1.9,0-3.8,0-5.6,0c0,10.2,0,20.3,0,30.5
		c-1.9,0-3.8,0-5.7,0c0-10.2,0-20.3,0-30.5c-1.9,0-3.7,0-5.6,0C155.2,77.6,155.2,75.8,155.2,74z"/>
	<path fill="#001E4E" d="M174.9,74c1.9,0,3.8,0,5.7,0c0,10.2,0,20.4,0,30.6c1.7,0.5,3.4,0.6,5.1,0c0-10.2,0-20.4,0-30.6
		c1.9,0,3.8,0,5.7,0c0,10.1,0,20.3,0,30.5c0,2.3-1.6,4.2-3.6,5.1c-3.2,1.3-7,1.2-10.1-0.5c-1.8-1-2.9-3-2.8-5
		C174.9,94,174.9,84,174.9,74z"/>
	<path fill="#001E4E" d="M237.7,74c1.9,0,3.8,0,5.7,0c0,10.2,0,20.3,0,30.5c2.9,0,5.8,0,8.7,0c-0.1,1.8-0.2,3.6-0.5,5.4
		c-4.6,0.1-9.3,0-13.9,0C237.7,97.9,237.7,85.9,237.7,74z"/>
</g>
</svg>
