<svg version="1.1" id="svg2" xml:space="preserve" viewBox="115.2 480.96000000000004 1209.6 478.08000000000004" xmlns="http://www.w3.org/2000/svg" style="max-height: 500px" width="1209.6" height="478.08000000000004"><metadata id="metadata8">image/svg+xml</metadata><defs id="defs6"><clipPath clipPathUnits="userSpaceOnUse" id="clipPath18"><path d="M 0,1080 H 1080 V 0 H 0 Z" id="path16"/></clipPath></defs><g id="g10" transform="matrix(1.3333333,0,0,-1.3333333,0,1440)"><g id="g12"><g id="g14" clip-path="url(#clipPath18)"><g id="g20" transform="translate(363.1498,569.3705)"><path d="m 0,0 c 0,0.026 -0.028,0.026 -0.028,0.054 l -0.055,0.083 -5.71,8.471 -0.028,0.055 -1.858,2.35 -42.275,-50.747 -53.835,-64.6 0.219,-0.248 c 23.419,-28.256 20.462,-73.689 -0.223,-103.313 19.019,22.901 95.923,115.584 95.949,115.612 C 14.265,-65.941 16.86,-28.94 0,0" style="fill:#f00515;fill-opacity:1;fill-rule:nonzero;stroke:none" id="path22"/></g><g id="g24" transform="translate(90,692.4163)"><path d="m 0,0 h 68.515 c 8.163,0 15.937,-3.497 21.352,-9.605 l 56.24,-63.454 c 2.731,-3.08 0.543,-7.937 -3.569,-7.937 H 67.244 Z" style="fill:#121213;fill-opacity:1;fill-rule:nonzero;stroke:none" id="path26"/></g><g id="g28" transform="translate(259.5674,464.7772)"><path d="m 0,0 -0.211,0.254 -43.511,52.402 -52.61,62.943 c -24.871,-29.967 -24.847,-73.465 0.178,-103.302 0.022,-0.024 0.033,-0.037 0.033,-0.037 l 53.129,-64.006 38.439,-46.324 4.342,-5.23 0.189,-0.228 c 1.471,1.77 2.848,3.59 4.145,5.45 C 24.808,-68.43 23.44,-28.247 0,0" style="fill:#000001;fill-opacity:1;fill-rule:nonzero;stroke:none" id="path30"/></g><g id="g32" transform="translate(247.0717,568.8151)"><path d="m 0,0 -37.657,-43.696 c 0,0 -46.204,55.228 -46.178,55.256 1.885,1.695 41.069,35.442 76.211,-2.35 z" style="fill:#121213;fill-opacity:1;fill-rule:nonzero;stroke:none" id="path34"/></g><g id="g36" transform="translate(355.3069,580.6022)"><path d="m 0,0 0.163,-0.219 -42.275,-50.747 -68.48,81.928 c -2.159,2.157 -2.624,5.027 -0.165,7.788 l 56.24,63.453 c 5.41,6.121 13.198,9.619 21.341,9.619 H 35.361 L -31.835,34.705 Z" style="fill:#f11e2c;fill-opacity:1;fill-rule:nonzero;stroke:none" id="path38"/></g><g id="g40" transform="translate(275.1127,684.5176)"><path d="m 0,0 c -18.9,0 -34.234,-15.32 -34.234,-34.234 0,18.914 -15.32,34.234 -34.22,34.234 18.9,0 34.22,15.32 34.22,34.234 C -34.234,15.32 -18.9,0 0,0" style="fill:#121213;fill-opacity:1;fill-rule:nonzero;stroke:none" id="path42"/></g><g id="g44" transform="translate(618.2249,588.5889)"><path d="m 0,0 h -65.515 c 3.006,-12.301 12.979,-21.596 25.96,-21.596 7.309,0 14.484,3.145 19.265,8.543 l 15.85,-0.341 c -6.968,-13.257 -20.29,-21.732 -35.73,-21.732 -22.545,0 -40.238,19.547 -40.238,41.686 0,22.823 17.421,41.545 40.579,41.545 22.408,0 40.307,-18.45 40.307,-40.726 C 0.41,4.987 0.274,2.389 0,0 m -40.033,34.577 c -12.844,0 -24.731,-10.114 -25.55,-23.167 h 51.101 c -0.821,12.986 -12.64,23.167 -25.551,23.167 M 65.652,-33.143 V 9.84 c 0,13.394 -4.03,24.737 -19.743,24.737 -14.551,0 -20.836,-11.276 -20.836,-24.6 v -43.12 H 10.248 v 79.132 h 13.87 v -8.406 h 0.271 c 5.739,7.585 14.004,10.592 23.16,10.592 11.271,0 21.861,-4.44 28.01,-14.146 3.825,-6.012 4.988,-13.256 4.988,-20.294 v -46.878 z m 93.797,0 v 11.276 h -0.272 c -6.56,-9.156 -17.012,-13.259 -28.01,-13.259 -23.707,0 -41.128,17.701 -41.128,41.275 0,23.712 17.147,42.026 41.128,42.026 9.975,0 20.562,-3.828 26.848,-11.821 h 0.274 V 72.57 h 14.825 V -33.143 Z m -27.463,67.72 c -15.711,0 -27.122,-12.849 -27.122,-28.293 0,-14.827 11.888,-27.88 26.985,-27.88 15.44,0 27.532,12.575 27.532,27.88 0.068,15.855 -11.204,28.293 -27.395,28.293 m 84.098,-94.166 h -15.37 l 11.545,28.018 -31.564,77.558 h 15.987 l 23.297,-61.431 23.842,61.431 h 15.985 z m 86.01,24.463 c -23.295,0 -42.697,18.726 -42.697,42.164 0,23.303 19.88,41.137 42.697,41.137 23.16,0 42.698,-17.973 42.698,-41.411 0,-22.619 -18.719,-41.89 -42.698,-41.89 m 0,69.703 c -15.44,0 -27.874,-12.575 -27.874,-28.017 0,-15.444 12.434,-28.156 27.874,-28.156 15.577,0 27.873,12.849 27.873,28.293 -0.069,15.442 -12.503,27.88 -27.873,27.88 m 54.789,37.993 h 14.892 V -33.144 h -14.892 z m -549.125,-90.132 c 0.616,-2.531 1.435,-4.579 2.391,-6.152 0.956,-1.572 2.188,-2.937 3.621,-4.235 4.714,-4.102 10.657,-6.219 17.695,-6.219 6.968,0 13.526,1.709 19.469,4.989 v 14.213 c -6.147,-3.621 -12.023,-5.466 -17.558,-5.466 -7.513,0 -11.408,4.579 -11.408,13.668 v 38.745 h 24.934 v 13.735 h -24.864 v 25.419 h -14.689 V 45.783 h -14.277 V 32.048 h 13.662 V -3.076 c 0,-7.107 0.342,-11.958 1.024,-14.486 m 89.837,50.292 c 4.576,0 9.631,-2.528 15.029,-7.585 l 8.061,13.396 c -6.558,6.013 -14.484,8.745 -19.128,8.745 h -1.026 c -5.328,0 -14.21,0 -21.45,-11.754 l -0.274,-0.477 0.068,10.659 h -15.371 v -78.449 h 15.371 V 8.267 c 0,6.558 1.846,12.299 5.534,17.152 3.689,4.852 8.131,7.311 13.186,7.311" style="fill:#000001;fill-opacity:1;fill-rule:nonzero;stroke:none" id="path46"/></g><g id="g48" transform="translate(427.1238,448.7397)"><path d="m 0,0 c -4.518,1.851 -8.128,4.592 -10.833,8.222 -2.704,3.627 -4.129,7.998 -4.277,13.109 H 5.111 c 0.296,-2.889 1.295,-5.094 3,-6.612 1.703,-1.519 3.925,-2.277 6.664,-2.277 2.815,0 5.037,0.647 6.667,1.944 1.629,1.295 2.443,3.094 2.443,5.389 0,1.925 -0.649,3.517 -1.944,4.777 -1.297,1.26 -2.887,2.294 -4.776,3.111 -1.888,0.814 -4.575,1.74 -8.055,2.778 -5.037,1.553 -9.149,3.11 -12.331,4.666 -3.187,1.555 -5.928,3.849 -8.222,6.888 -2.296,3.034 -3.443,6.998 -3.443,11.888 0,7.255 2.626,12.942 7.887,17.052 5.257,4.112 12.11,6.167 20.553,6.167 8.591,0 15.514,-2.055 20.775,-6.167 5.257,-4.11 8.072,-9.832 8.443,-17.165 H 22.219 c -0.15,2.518 -1.073,4.499 -2.776,5.943 -1.705,1.447 -3.89,2.168 -6.555,2.168 -2.296,0 -4.149,-0.61 -5.555,-1.833 -1.407,-1.223 -2.111,-2.983 -2.111,-5.279 0,-2.517 1.184,-4.481 3.554,-5.886 2.369,-1.408 6.073,-2.926 11.11,-4.555 5.035,-1.706 9.128,-3.335 12.277,-4.888 3.148,-1.557 5.868,-3.816 8.166,-6.779 2.293,-2.963 3.443,-6.775 3.443,-11.441 0,-4.444 -1.13,-8.482 -3.389,-12.11 C 38.124,5.48 34.846,2.591 30.552,0.443 26.255,-1.705 21.181,-2.778 15.331,-2.778 9.627,-2.778 4.516,-1.853 0,0" style="fill:#000001;fill-opacity:1;fill-rule:nonzero;stroke:none" id="path50"/></g><g id="g52" transform="translate(539.3307,508.7317)"><path d="m 0,0 v -61.992 h -18.998 v 8.443 c -1.927,-2.741 -4.538,-4.944 -7.833,-6.61 -3.295,-1.668 -6.942,-2.5 -10.941,-2.5 -4.742,0 -8.928,1.056 -12.555,3.167 -3.63,2.109 -6.443,5.166 -8.444,9.165 -2,3.999 -2.999,8.701 -2.999,14.11 V 0 h 18.887 v -33.662 c 0,-4.149 1.073,-7.371 3.221,-9.664 2.148,-2.299 5.037,-3.445 8.667,-3.445 3.702,0 6.627,1.146 8.776,3.445 2.148,2.293 3.221,5.515 3.221,9.664 l 0,33.662 z m -47.549,9.221 c -1.555,1.555 -2.333,3.48 -2.333,5.778 0,2.294 0.778,4.238 2.333,5.83 1.555,1.594 3.48,2.389 5.776,2.389 2.37,0 4.333,-0.777 5.889,-2.333 1.555,-1.555 2.332,-3.518 2.332,-5.886 0,-2.298 -0.797,-4.223 -2.387,-5.778 -1.594,-1.555 -3.538,-2.333 -5.834,-2.333 -2.296,0 -4.221,0.778 -5.776,2.333 m 22.219,0 c -1.555,1.555 -2.333,3.48 -2.333,5.778 0,2.294 0.778,4.238 2.333,5.83 1.555,1.594 3.48,2.389 5.776,2.389 2.37,0 4.333,-0.777 5.889,-2.333 1.555,-1.555 2.333,-3.518 2.333,-5.886 0,-2.298 -0.798,-4.223 -2.39,-5.778 -1.592,-1.555 -3.536,-2.333 -5.832,-2.333 -2.296,0 -4.221,0.778 -5.776,2.333" style="fill:#000001;fill-opacity:1;fill-rule:nonzero;stroke:none" id="path54"/></g><g id="g56" transform="translate(574.033,506.9539)"><path d="m 0,0 c 3.258,1.777 7.07,2.667 11.443,2.667 5.111,0 9.738,-1.296 13.887,-3.888 4.146,-2.596 7.424,-6.297 9.833,-11.11 2.405,-4.816 3.61,-10.407 3.61,-16.776 0,-6.371 -1.205,-11.982 -3.61,-16.832 -2.409,-4.851 -5.687,-8.591 -9.833,-11.22 -4.149,-2.63 -8.776,-3.944 -13.887,-3.944 -4.297,0 -8.094,0.888 -11.389,2.667 -3.295,1.777 -5.869,4.073 -7.72,6.888 V -89.765 H -26.664 V 1.777 H -7.666 V -6.999 C -5.815,-4.11 -3.261,-1.777 0,0 m 15.498,-17.942 c -2.63,2.704 -5.871,4.055 -9.72,4.055 -3.778,0 -6.981,-1.37 -9.61,-4.11 -2.63,-2.741 -3.944,-6.484 -3.944,-11.221 0,-4.742 1.314,-8.482 3.944,-11.221 2.629,-2.74 5.832,-4.11 9.61,-4.11 3.777,0 6.999,1.388 9.664,4.166 2.665,2.776 3.999,6.536 3.999,11.276 0,4.739 -1.316,8.46 -3.943,11.165" style="fill:#000001;fill-opacity:1;fill-rule:nonzero;stroke:none" id="path58"/></g><g id="g60" transform="translate(679.4034,473.1803)"><path d="m 0,0 h -42.994 c 0.293,-3.851 1.536,-6.795 3.721,-8.832 2.185,-2.038 4.87,-3.054 8.054,-3.054 4.74,0 8.035,1.998 9.888,5.997 H -1.11 c -1.038,-4.073 -2.909,-7.737 -5.613,-10.998 -2.702,-3.26 -6.091,-5.814 -10.164,-7.665 -4.075,-1.851 -8.63,-2.778 -13.665,-2.778 -6.073,0 -11.482,1.296 -16.219,3.89 -4.742,2.591 -8.444,6.293 -11.109,11.109 -2.667,4.813 -4.001,10.443 -4.001,16.886 0,6.443 1.314,12.073 3.944,16.887 2.629,4.813 6.313,8.517 11.055,11.11 4.737,2.592 10.183,3.888 16.33,3.888 6,0 11.333,-1.259 15.998,-3.777 4.666,-2.52 8.313,-6.11 10.942,-10.776 C -0.982,17.221 0.332,11.778 0.332,5.556 0.332,3.777 0.222,1.927 0,0 m -19.109,10.555 c 0,3.258 -1.112,5.849 -3.332,7.776 -2.222,1.927 -5,2.889 -8.332,2.889 -3.187,0 -5.872,-0.928 -8.055,-2.778 -2.185,-1.851 -3.538,-4.481 -4.055,-7.887 z" style="fill:#000001;fill-opacity:1;fill-rule:nonzero;stroke:none" id="path62"/></g><g id="g64" transform="translate(710.8615,506.4546)"><path d="M 0,0 C 3.332,1.961 7.036,2.943 11.108,2.943 V -17.165 H 5.889 c -4.742,0 -8.298,-1.018 -10.666,-3.056 -2.372,-2.037 -3.556,-5.608 -3.556,-10.72 V -59.715 H -27.33 V 2.276 H -8.333 V -8.054 C -6.11,-4.648 -3.334,-1.964 0,0" style="fill:#000001;fill-opacity:1;fill-rule:nonzero;stroke:none" id="path66"/></g><g id="g68" transform="translate(776.5724,518.1188)"><path d="m 0,0 c -2.112,1.961 -3.167,4.388 -3.167,7.277 0,2.963 1.055,5.426 3.167,7.39 2.111,1.959 4.833,2.943 8.165,2.943 3.258,0 5.945,-0.984 8.055,-2.943 2.111,-1.964 3.167,-4.427 3.167,-7.39 C 19.387,4.388 18.331,1.961 16.22,0 14.11,-1.964 11.423,-2.943 8.165,-2.943 4.833,-2.943 2.111,-1.964 0,0 M 17.61,-71.38 H -1.388 V -9.388 H 17.61 Z" style="fill:#000001;fill-opacity:1;fill-rule:nonzero;stroke:none" id="path70"/></g><g id="g72" transform="translate(838.5642,506.9539)"><path d="m 0,0 c 3.295,-1.777 5.832,-4.11 7.609,-6.999 v 8.776 h 18.998 v -61.881 c 0,-5.702 -1.13,-10.868 -3.389,-15.497 -2.259,-4.629 -5.704,-8.313 -10.33,-11.054 -4.629,-2.739 -10.388,-4.11 -17.276,-4.11 -9.184,0 -16.628,2.166 -22.33,6.497 -5.704,4.334 -8.962,10.205 -9.777,17.61 h 18.774 c 0.593,-2.37 2.001,-4.238 4.223,-5.61 2.222,-1.369 4.961,-2.055 8.222,-2.055 3.925,0 7.053,1.129 9.386,3.388 2.335,2.262 3.499,5.872 3.499,10.831 v 8.777 c -1.851,-2.888 -4.407,-5.241 -7.665,-7.055 -3.259,-1.816 -7.073,-2.721 -11.441,-2.721 -5.112,0 -9.743,1.314 -13.889,3.944 -4.147,2.629 -7.425,6.369 -9.832,11.22 -2.406,4.85 -3.61,10.461 -3.61,16.832 0,6.369 1.204,11.96 3.61,16.776 2.407,4.813 5.685,8.514 9.832,11.11 4.146,2.592 8.777,3.888 13.889,3.888 4.368,0 8.2,-0.89 11.497,-2.667 m 3.667,-17.997 c -2.631,2.74 -5.833,4.11 -9.61,4.11 -3.778,0 -6.981,-1.351 -9.61,-4.055 -2.63,-2.705 -3.944,-6.426 -3.944,-11.165 0,-4.74 1.314,-8.5 3.944,-11.276 2.629,-2.778 5.832,-4.166 9.61,-4.166 3.777,0 6.979,1.37 9.61,4.11 2.626,2.739 3.942,6.479 3.942,11.221 0,4.737 -1.316,8.48 -3.942,11.221" style="fill:#000001;fill-opacity:1;fill-rule:nonzero;stroke:none" id="path74"/></g><g id="g76" transform="translate(745.6338,461.4042)"><path d="m 0,0 h 24.887 v -14.664 h -43.885 v 77.99 l 18.998,0 z" style="fill:#000001;fill-opacity:1;fill-rule:nonzero;stroke:none" id="path78"/></g></g></g></g></svg>